<?xml version="1.0" encoding="iso-8859-1"?>
<!-- Generator: Adobe Illustrator 19.0.0, SVG Export Plug-In . SVG Version: 6.00 Build 0)  -->
<svg version="1.1" id="Capa_1" xmlns="http://www.w3.org/2000/svg" xmlns:xlink="http://www.w3.org/1999/xlink" x="0px" y="0px"
	 viewBox="0 0 512 512" style="enable-background:new 0 0 512 512;" xml:space="preserve">
<g>
	<g>
		<path d="M256,0C114.848,0,0,114.848,0,256s114.848,256,256,256s256-114.848,256-256S397.152,0,256,0z M429.28,397.76
			c-8.192-4.48-16.928-8.256-26.432-10.24l-70.176-14.08C325.312,372,320,365.408,320,357.76v-18.24c69.92-6.688,80-20.96,80-35.52
			c0-43.04-28.608-142.976-33.312-159.232c-0.608-25.12-5.184-39.232-16.672-51.616c-8.128-8.8-20.096-10.848-29.728-12.48
			c-3.776-0.672-8.992-1.536-10.912-2.592c-17.056-9.216-33.92-13.696-54.048-14.08c-42.144,1.728-93.952,28.544-111.68,77.568
			C142.368,146.144,112,254.368,112,304c0,20.704,23.392,31.616,80,36.608v17.152c0,7.648-5.344,14.24-12.736,15.68l-70.24,14.08
			c-9.44,1.984-18.112,5.728-26.304,10.208C51.04,359.104,32,309.728,32,256C32,132.48,132.48,32,256,32
			c123.488,0,224,100.48,224,224C480,309.728,460.928,359.104,429.28,397.76z"/>
	</g>
</g>
<g>
</g>
<g>
</g>
<g>
</g>
<g>
</g>
<g>
</g>
<g>
</g>
<g>
</g>
<g>
</g>
<g>
</g>
<g>
</g>
<g>
</g>
<g>
</g>
<g>
</g>
<g>
</g>
<g>
</g>
</svg>
