<?xml version="1.0" encoding="iso-8859-1"?>
<!-- Generator: Adobe Illustrator 19.0.0, SVG Export Plug-In . SVG Version: 6.00 Build 0)  -->
<svg version="1.1" id="Layer_1" xmlns="http://www.w3.org/2000/svg" xmlns:xlink="http://www.w3.org/1999/xlink" x="0px" y="0px"
	 viewBox="0 0 496.016 496.016" style="enable-background:new 0 0 496.016 496.016;" xml:space="preserve">
<g>
	<g>
		<path d="M248.016,0C111.264,0,0.008,111.256,0.008,248.008s111.256,248.008,248.008,248.008
			c136.744,0,247.992-111.256,247.992-248.008S384.76,0,248.016,0z M370.6,141.28l-78.544,145.948c-1.076,2-2.716,3.648-4.724,4.728
			l-145.94,78.532c-1.736,0.932-3.624,1.384-5.504,1.384c-3.012,0-5.988-1.164-8.224-3.404c-3.632-3.628-4.452-9.212-2.02-13.732
			L204.172,208.8c1.08-2.004,2.724-3.652,4.728-4.728l145.956-78.536c4.52-2.436,10.096-1.612,13.732,2.016
			C372.212,131.184,373.04,136.76,370.6,141.28z"/>
	</g>
</g>
<g>
	<g>
		<path d="M248.248,220.984c-14.96,0-27.084,12.112-27.084,27.072c0,14.956,12.128,27.088,27.084,27.088
			c14.944,0,27.072-12.132,27.072-27.088C275.32,233.096,263.192,220.984,248.248,220.984z"/>
	</g>
</g>
<g>
</g>
<g>
</g>
<g>
</g>
<g>
</g>
<g>
</g>
<g>
</g>
<g>
</g>
<g>
</g>
<g>
</g>
<g>
</g>
<g>
</g>
<g>
</g>
<g>
</g>
<g>
</g>
<g>
</g>
</svg>
